# xmcd
#
# Track frame offsets: 
#        150
#        19598
#        34403
#        51489
#        75998
#        95870
#        116467
#        134791
#        155168
#        170508
#        183775
#        197289
#        225556
#
# Disc length: 3193 seconds
#
# Revision: 0
# Processed by: cddbd v1.5.2PL0 Copyright (c) Steve Scherf et al.
# Submitted via: ExactAudioCopy v1.0b1
#
DISCID=aa0c770d
DTITLE=The Mojo Roots - Thirteen Shades Of Blue
DYEAR=2010
DGENRE=Electric Blues
TTITLE0=Blue-Eyed Blues
TTITLE1=How Many Men
TTITLE2=The Way You Been Kissin' Me
TTITLE3=One Dime And A Nickel
TTITLE4=River's Risin'
TTITLE5=On A Sunday Night
TTITLE6=Missouri Clay
TTITLE7=The One Who Cries
TTITLE8=But Then Again
TTITLE9=John The Conqueror Root
TTITLE10=Always Ready
TTITLE11=Wicked Wanderin' Heart
TTITLE12=Thirteen Shades Of Blue
EXTD=
EXTT0=
EXTT1=
EXTT2=
EXTT3=
EXTT4=
EXTT5=
EXTT6=
EXTT7=
EXTT8=
EXTT9=
EXTT10=
EXTT11=
EXTT12=
PLAYORDER=
